<svg xmlns="http://www.w3.org/2000/svg" width="22.67" height="22.67" viewBox="0 0 22.67 22.67">
    <defs>
        <style>
            .cls-1{fill:#fff}
        </style>
    </defs>
    <g id="_001-facebook-logotype-button" data-name="001-facebook-logotype-button">
        <g id="Grupo_22" data-name="Grupo 22">
            <g id="Grupo_21" data-name="Grupo 21">
                <path id="Trazado_20" d="M18.42 0H4.251A4.25 4.25 0 0 0 0 4.251V18.42a4.25 4.25 0 0 0 4.251 4.25H18.42a4.25 4.25 0 0 0 4.25-4.25V4.251A4.25 4.25 0 0 0 18.42 0zm-4.155 11.334h-1.857v6.8H9.857v-6.8h-1.7V8.992h1.7v-1.38c0-1.913.519-3.076 2.77-3.076H14.5v2.343h-1.173c-.877 0-.92.327-.92.938V8.99h2.108z" class="cls-1" data-name="Trazado 20"/>
            </g>
        </g>
    </g>
</svg>
