<svg xmlns="http://www.w3.org/2000/svg" width="22.671" height="22.67" viewBox="0 0 22.671 22.67">
    <defs>
        <style>
            .cls-1{fill:#fff}
        </style>
    </defs>
    <g id="_002-twitter-logo" data-name="002-twitter-logo">
        <g id="Grupo_24" data-name="Grupo 24">
            <g id="Grupo_23" data-name="Grupo 23">
                <path id="Trazado_21" d="M18.42 0H4.251A4.25 4.25 0 0 0 0 4.251V18.42a4.25 4.25 0 0 0 4.251 4.25H18.42a4.25 4.25 0 0 0 4.25-4.25V4.251A4.25 4.25 0 0 0 18.42 0zm-1.445 8.79l.008.361a7.936 7.936 0 0 1-12.218 6.687 5.739 5.739 0 0 0 .666.04A5.6 5.6 0 0 0 8.9 14.683a2.8 2.8 0 0 1-2.61-1.938 2.912 2.912 0 0 0 .526.048 2.791 2.791 0 0 0 .735-.1 2.794 2.794 0 0 1-2.239-2.732v-.036a2.787 2.787 0 0 0 1.264.35 2.8 2.8 0 0 1-.865-3.725 7.92 7.92 0 0 0 5.753 2.916 2.793 2.793 0 0 1 4.757-2.545 5.651 5.651 0 0 0 1.773-.677 2.8 2.8 0 0 1-1.227 1.544 5.6 5.6 0 0 0 1.6-.439 5.641 5.641 0 0 1-1.392 1.441z" class="cls-1" data-name="Trazado 21"/>
            </g>
        </g>
    </g>
</svg>
