<svg xmlns="http://www.w3.org/2000/svg" width="23.702" height="23.702" viewBox="0 0 23.702 23.702">
    <defs>
        <style>
            .cls-1{fill:#fff}
        </style>
    </defs>
    <g id="_003-linkedin-logotype-button" data-name="003-linkedin-logotype-button">
        <g id="Grupo_26" data-name="Grupo 26">
            <g id="Grupo_25" data-name="Grupo 25">
                <path id="Trazado_22" d="M19.258 0H4.444A4.444 4.444 0 0 0 0 4.444v14.814A4.444 4.444 0 0 0 4.444 23.7h14.814a4.444 4.444 0 0 0 4.442-4.442V4.444A4.444 4.444 0 0 0 19.258 0zM8.888 17.591H5.925V7.222h2.963zM7.5 6.586A1.39 1.39 0 1 1 8.888 5.2 1.388 1.388 0 0 1 7.5 6.586zm11.758 11.005H16.3V11.18c0-.751-.215-1.277-1.138-1.277a1.777 1.777 0 0 0-1.825 1.277v6.411H10.37V7.222h2.963v.991a4.955 4.955 0 0 1 2.963-.99c.96 0 2.963.575 2.963 4.047z" class="cls-1" data-name="Trazado 22"/>
            </g>
        </g>
    </g>
</svg>
