<svg xmlns="http://www.w3.org/2000/svg" width="22.671" height="22.67" viewBox="0 0 22.671 22.67">
    <defs>
        <style>
            .cls-1{fill:#fff}
        </style>
    </defs>
    <g id="_005-instagram-logo" data-name="005-instagram-logo">
        <g id="Grupo_30" data-name="Grupo 30">
            <path id="Trazado_25" d="M21.646 0H1.023A1.023 1.023 0 0 0 0 1.022v20.627a1.024 1.024 0 0 0 1.023 1.021h20.623a1.024 1.024 0 0 0 1.024-1.022V1.022A1.023 1.023 0 0 0 21.646 0zM11.335 7.379a3.956 3.956 0 1 1-3.956 3.956 3.956 3.956 0 0 1 3.956-3.956zm8.5 12.457h-17V9.918H4.7a6.788 6.788 0 1 0 13.425 1.417 6.868 6.868 0 0 0-.153-1.417h1.865v9.918zm0-12.752h-4.249v-4.25h4.251z" class="cls-1" data-name="Trazado 25"/>
        </g>
    </g>
</svg>
